<svg version="1" xmlns="http://www.w3.org/2000/svg" width="346.667" height="346.667" viewBox="0 0 260.000000 260.000000"><path d="M108.5 1.7C55.3 10.9 14.2 50.5 2.4 104.1.5 112.9-.3 138.6 1.1 148 9.3 204.3 53 249.1 109 258.5c14 2.3 40.6 1.3 51-2 1-.3 2.9-.8 4.1-1 8.9-1.7 25.8-9.4 37.1-16.8 30.3-19.7 50.5-50.6 57.4-87.7 1-5.6 1.3-33.1.4-38-.4-2.5-1.1-6.3-1.4-8.5-1.1-6.7-5.5-20.3-9.6-29.1C230.2 36.8 195.2 9.8 152.7 2 140.8-.1 120-.3 108.5 1.7zm40 16.6c1.1.3 4.2 1 6.9 1.7 40.6 9.2 73.6 41.4 84.1 81.8 2.4 9.3 2.6 11.6 3 26.2.3 11.3 0 15.3-1.9 24.5-2.5 11.5-6.5 22.6-11.2 31.1-3.1 5.7-9.4 15-12 18-1.1 1.2-3.3 3.6-4.9 5.5-14.1 15.8-35.8 28.1-59.5 33.6-8 1.8-31.2 2.4-40.5 1.1-24.9-3.7-51.4-18.7-69-39.1-12.5-14.5-22.9-37.6-25.3-56.2-.4-2.8-.6-11.3-.6-19 .1-11.4.6-15.9 2.7-24.1 9.6-38.5 38.2-69.2 75.3-81 6.4-2 10.1-2.8 21.4-4.8 3.1-.6 28.7.1 31.5.7z"/><path d="M62.1 82.9c-.8.5-1 14-.9 49.6l.3 48.9 3.5.1c6.9.2 21.6-1.6 27.1-3.4 13.6-4.5 24.5-11.4 33.8-21.7l5.5-5.9 8.5 8.5c15.5 15.5 30.7 21.6 55.8 22.5l7.3.2V90h-17v74.2l-3.2-.7c-12.7-2.7-22.2-7.8-30.8-16.4-5.2-5.3-7.6-8.9-12.2-18.2-14.5-29.8-37.2-45-69.3-46.4-4-.1-7.8 0-8.4.4zm25.7 19.5c12.9 4.3 24.1 12.9 31.6 24.3 3.5 5.2 2.9 7.3-3.9 15.5-5.5 6.7-12 12-19.4 15.8-4.8 2.6-16.9 6.1-17.5 5.1-.2-.3-.3-14.6-.3-31.7l-.1-31.1 2.4.3c1.3.1 4.5.9 7.2 1.8z"/></svg>