<svg version="1" xmlns="http://www.w3.org/2000/svg" width="682.667" height="682.667" viewBox="0 0 512.000000 512.000000"><path d="M225.5 1.5c-38.1 5-72.6 17-103.7 36.2C82.5 61.9 48.8 98.4 28 139c-9.7 19.1-19 44.6-21.5 58.9-.3 1.9-.8 3.7-1 4-.2.4-.6 2.6-1 5.1-.4 2.5-.8 4.7-1 5-.1.3-.6 3.2-1 6.5-.3 3.3-1 8.9-1.5 12.5-1.2 9.9-.9 42.2.6 54.6 1.1 9 3.4 22.4 5.9 33.4 1.4 6.1 6.3 21.3 9.9 30.5 12.7 32.3 31.7 61.5 56.4 86.3 31 31.2 66.1 52.5 107 65.1 14.5 4.5 24.5 6.6 46.2 9.8 3 .4 16.8.8 30.5.7 21 0 27-.4 37.5-2.2 17.2-3 17.3-3 27.9-5.8 8.1-2.2 13.3-3.9 31.6-10.6 8.1-3 31.4-15.6 42-22.7 19.7-13.2 39-29.9 52-45.1 2.6-3 5.7-6.6 6.9-8 4-4.7 14.4-19.5 19.3-27.5 14.4-23.5 27.6-56.4 31.7-79.1.3-1.6.8-3.8 1-4.9.2-1.1.9-5.2 1.5-9 .6-3.9 1.3-8.6 1.7-10.5 1-5.7 1.3-47.9.3-55.5-.4-3.9-1.1-9.3-1.4-12-3.8-29.8-17.7-68.5-34.7-95.9-4.4-7.2-16.3-24.3-17.8-25.6-.3-.3-2.9-3.4-5.9-7-24.8-29.8-62.6-57.1-99.9-71.9-18-7.2-42.9-13.8-58.7-15.6-3.3-.4-6.9-1-8-1.2-4.7-1.2-49.4-1-59 .2zm52.4 11c4.6.3 9.2.8 10.1 1 1 .2 4 .7 6.7 1.1 2.6.3 5.5.8 6.3.9C349.9 25 392.7 47.7 428.1 83c20.7 20.6 32.3 36.5 45.8 62.5 11.3 21.6 20.4 49.4 23.7 72 .3 2.2.7 5.1 1 6.5.8 4.5 1.7 21.3 1.8 31.5.1 53.4-16 102.2-47.7 145.4-19.2 26.1-45 49.5-72.8 65.8-37.7 22.3-80.1 33.8-123.4 33.7-11.6 0-29.3-1.1-31.6-1.8-.8-.3-3.9-.7-6.9-1.1-20.2-2.2-53.5-13.2-75.7-25.1-74.8-40-123-113-130-196.8-1.2-14.5-.6-40.4 1.3-52.1 2.9-18.2 4.5-25.5 9.1-40.4 10.8-35.3 30.5-68.5 57.2-96.4 33.4-34.8 78.6-60.1 124.6-69.8 3.3-.7 6.2-1.3 6.5-1.4.3-.1 3-.5 6-.9 3-.5 6.3-1 7.3-1.2 1-.2 6.2-.6 11.5-1 5.4-.3 9.8-.7 9.9-.8.5-.4 24.6.2 32.2.9z"/><path d="M126.2 260.1l.1 90.2 12.6-.7c6.9-.3 13.7-.8 15.1-1.1 1.4-.2 4.3-.7 6.5-1.1 7.3-1.1 25.9-7.6 35.6-12.3 24.6-12.2 44.9-30.6 59.3-54l4.3-7 3.8 6.7c13.4 23.7 36 44.3 61.1 55.8 7.2 3.3 23.3 8.8 28.9 9.9 8.1 1.5 7.3 1.4 19 3 5.8.7 20 1 21.1.3.7-.5 1.2-173 .5-175.8 0-.3-2.6-.5-5.6-.6H383V339l-3.2-.4c-1.8-.3-5.9-.8-9.2-1.1-28.6-3.2-54.3-15-74.8-34.3-12.8-12.1-21.4-24.6-29.8-43.7-8.8-19.7-18.7-34.4-32.6-48-26.4-26-61-40.5-98.5-41.4l-8.7-.2v90.2zm37.3-74.6c10.7 2.7 23.2 7.3 30.5 11.3 23.5 12.9 43.8 33.1 55.2 54.9l4.3 8.3-4.4 8.4c-14.7 28.4-43 52.4-74.1 62.9-11.2 3.7-16.6 4.9-30.2 6.5-5.9.7-6.8.6-6.9-.7 0-.9-.1-36.2-.2-78.4l-.2-76.9 8 .6c4.4.3 12.5 1.7 18 3.1z"/></svg>